<?xml version="1.0" encoding="UTF-8" standalone="no"?>
<!DOCTYPE svg PUBLIC "-//W3C//DTD SVG 1.1//EN"
 "http://www.w3.org/Graphics/SVG/1.1/DTD/svg11.dtd">
<!-- Generated by graphviz version 2.30.1 (20180420.1509)
 -->
<!-- Title: snakemake_dag Pages: 1 -->
<svg width="2359pt" height="648pt"
 viewBox="0.00 0.00 2359.00 648.00" xmlns="http://www.w3.org/2000/svg" xmlns:xlink="http://www.w3.org/1999/xlink">
<g id="graph0" class="graph" transform="scale(1 1) rotate(0) translate(4 644)">
<title>snakemake_dag</title>
<polygon fill="white" stroke="white" points="-4,5 -4,-644 2356,-644 2356,5 -4,5"/>
<!-- 0 -->
<g id="node1" class="node"><title>0</title>
<path fill="none" stroke="#56b1d8" stroke-width="2" d="M1867,-36C1867,-36 1837,-36 1837,-36 1831,-36 1825,-30 1825,-24 1825,-24 1825,-12 1825,-12 1825,-6 1831,-0 1837,-0 1837,-0 1867,-0 1867,-0 1873,-0 1879,-6 1879,-12 1879,-12 1879,-24 1879,-24 1879,-30 1873,-36 1867,-36"/>
<text text-anchor="middle" x="1852" y="-15.5" font-family="sans" font-size="10.00">all</text>
</g>
<!-- 1 -->
<g id="node2" class="node"><title>1</title>
<path fill="none" stroke="#5673d8" stroke-width="2" d="M2178.25,-180C2178.25,-180 1941.75,-180 1941.75,-180 1935.75,-180 1929.75,-174 1929.75,-168 1929.75,-168 1929.75,-156 1929.75,-156 1929.75,-150 1935.75,-144 1941.75,-144 1941.75,-144 2178.25,-144 2178.25,-144 2184.25,-144 2190.25,-150 2190.25,-156 2190.25,-156 2190.25,-168 2190.25,-168 2190.25,-174 2184.25,-180 2178.25,-180"/>
<text text-anchor="middle" x="2060" y="-165" font-family="sans" font-size="10.00">gene_2_symbol</text>
<text text-anchor="middle" x="2060" y="-154" font-family="sans" font-size="10.00">prefix: results/diffexp/treated&#45;vs&#45;untreated.diffexp</text>
</g>
<!-- 1&#45;&gt;0 -->
<g id="edge1" class="edge"><title>1&#45;&gt;0</title>
<path fill="none" stroke="grey" stroke-width="2" d="M2027.59,-143.886C2009.84,-134.077 1987.7,-121.133 1969,-108 1948.6,-93.6765 1945.7,-87.2674 1926,-72 1913.01,-61.9331 1898.36,-51.2985 1885.55,-42.2189"/>
<polygon fill="grey" stroke="grey" points="1887.2,-39.1035 1877.01,-36.2075 1883.17,-44.8268 1887.2,-39.1035"/>
</g>
<!-- 41 -->
<g id="node42" class="node"><title>41</title>
<path fill="none" stroke="#56c1d8" stroke-width="2" d="M2130,-108C2130,-108 1990,-108 1990,-108 1984,-108 1978,-102 1978,-96 1978,-96 1978,-84 1978,-84 1978,-78 1984,-72 1990,-72 1990,-72 2130,-72 2130,-72 2136,-72 2142,-78 2142,-84 2142,-84 2142,-96 2142,-96 2142,-102 2136,-108 2130,-108"/>
<text text-anchor="middle" x="2060" y="-93" font-family="sans" font-size="10.00">enrichment</text>
<text text-anchor="middle" x="2060" y="-82" font-family="sans" font-size="10.00">contrast: treated&#45;vs&#45;untreated</text>
</g>
<!-- 1&#45;&gt;41 -->
<g id="edge83" class="edge"><title>1&#45;&gt;41</title>
<path fill="none" stroke="grey" stroke-width="2" d="M2060,-143.697C2060,-135.983 2060,-126.712 2060,-118.112"/>
<polygon fill="grey" stroke="grey" points="2063.5,-118.104 2060,-108.104 2056.5,-118.104 2063.5,-118.104"/>
</g>
<!-- 2 -->
<g id="node3" class="node"><title>2</title>
<path fill="none" stroke="#56d0d8" stroke-width="2" d="M2130,-252C2130,-252 1990,-252 1990,-252 1984,-252 1978,-246 1978,-240 1978,-240 1978,-228 1978,-228 1978,-222 1984,-216 1990,-216 1990,-216 2130,-216 2130,-216 2136,-216 2142,-222 2142,-228 2142,-228 2142,-240 2142,-240 2142,-246 2136,-252 2130,-252"/>
<text text-anchor="middle" x="2060" y="-237" font-family="sans" font-size="10.00">deseq2</text>
<text text-anchor="middle" x="2060" y="-226" font-family="sans" font-size="10.00">contrast: treated&#45;vs&#45;untreated</text>
</g>
<!-- 2&#45;&gt;1 -->
<g id="edge13" class="edge"><title>2&#45;&gt;1</title>
<path fill="none" stroke="grey" stroke-width="2" d="M2060,-215.697C2060,-207.983 2060,-198.712 2060,-190.112"/>
<polygon fill="grey" stroke="grey" points="2063.5,-190.104 2060,-180.104 2056.5,-190.104 2063.5,-190.104"/>
</g>
<!-- 3 -->
<g id="node4" class="node"><title>3</title>
<path fill="none" stroke="#9fd856" stroke-width="2" d="M1986.25,-324C1986.25,-324 1937.75,-324 1937.75,-324 1931.75,-324 1925.75,-318 1925.75,-312 1925.75,-312 1925.75,-300 1925.75,-300 1925.75,-294 1931.75,-288 1937.75,-288 1937.75,-288 1986.25,-288 1986.25,-288 1992.25,-288 1998.25,-294 1998.25,-300 1998.25,-300 1998.25,-312 1998.25,-312 1998.25,-318 1992.25,-324 1986.25,-324"/>
<text text-anchor="middle" x="1962" y="-303.5" font-family="sans" font-size="10.00">deseq2_init</text>
</g>
<!-- 3&#45;&gt;2 -->
<g id="edge14" class="edge"><title>3&#45;&gt;2</title>
<path fill="none" stroke="grey" stroke-width="2" d="M1985.97,-287.876C1998.55,-278.893 2014.13,-267.763 2027.75,-258.034"/>
<polygon fill="grey" stroke="grey" points="2029.83,-260.85 2035.93,-252.19 2025.76,-255.154 2029.83,-260.85"/>
</g>
<!-- 16 -->
<g id="node17" class="node"><title>16</title>
<path fill="none" stroke="#5673d8" stroke-width="2" d="M1872,-108C1872,-108 1714,-108 1714,-108 1708,-108 1702,-102 1702,-96 1702,-96 1702,-84 1702,-84 1702,-78 1708,-72 1714,-72 1714,-72 1872,-72 1872,-72 1878,-72 1884,-78 1884,-84 1884,-84 1884,-96 1884,-96 1884,-102 1878,-108 1872,-108"/>
<text text-anchor="middle" x="1793" y="-93" font-family="sans" font-size="10.00">gene_2_symbol</text>
<text text-anchor="middle" x="1793" y="-82" font-family="sans" font-size="10.00">prefix: results/deseq2/normcounts</text>
</g>
<!-- 3&#45;&gt;16 -->
<g id="edge30" class="edge"><title>3&#45;&gt;16</title>
<path fill="none" stroke="grey" stroke-width="2" d="M1925.74,-297.345C1899.34,-289.976 1864.56,-276.261 1843,-252 1833.95,-241.818 1811.63,-161.315 1800.11,-118.142"/>
<polygon fill="grey" stroke="grey" points="1803.45,-117.055 1797.5,-108.285 1796.68,-118.848 1803.45,-117.055"/>
</g>
<!-- 40 -->
<g id="node41" class="node"><title>40</title>
<path fill="none" stroke="#80d856" stroke-width="2" d="M1947.25,-252C1947.25,-252 1864.75,-252 1864.75,-252 1858.75,-252 1852.75,-246 1852.75,-240 1852.75,-240 1852.75,-228 1852.75,-228 1852.75,-222 1858.75,-216 1864.75,-216 1864.75,-216 1947.25,-216 1947.25,-216 1953.25,-216 1959.25,-222 1959.25,-228 1959.25,-228 1959.25,-240 1959.25,-240 1959.25,-246 1953.25,-252 1947.25,-252"/>
<text text-anchor="middle" x="1906" y="-237" font-family="sans" font-size="10.00">pca</text>
<text text-anchor="middle" x="1906" y="-226" font-family="sans" font-size="10.00">variable: condition</text>
</g>
<!-- 3&#45;&gt;40 -->
<g id="edge82" class="edge"><title>3&#45;&gt;40</title>
<path fill="none" stroke="grey" stroke-width="2" d="M1948.16,-287.697C1941.51,-279.389 1933.42,-269.277 1926.11,-260.141"/>
<polygon fill="grey" stroke="grey" points="1928.66,-257.727 1919.68,-252.104 1923.2,-262.099 1928.66,-257.727"/>
</g>
<!-- 4 -->
<g id="node5" class="node"><title>4</title>
<path fill="none" stroke="#56d8a9" stroke-width="2" d="M2180.25,-396C2180.25,-396 2123.75,-396 2123.75,-396 2117.75,-396 2111.75,-390 2111.75,-384 2111.75,-384 2111.75,-372 2111.75,-372 2111.75,-366 2117.75,-360 2123.75,-360 2123.75,-360 2180.25,-360 2180.25,-360 2186.25,-360 2192.25,-366 2192.25,-372 2192.25,-372 2192.25,-384 2192.25,-384 2192.25,-390 2186.25,-396 2180.25,-396"/>
<text text-anchor="middle" x="2152" y="-375.5" font-family="sans" font-size="10.00">count_matrix</text>
</g>
<!-- 4&#45;&gt;3 -->
<g id="edge15" class="edge"><title>4&#45;&gt;3</title>
<path fill="none" stroke="grey" stroke-width="2" d="M2111.71,-362.155C2081.3,-350.953 2039.55,-335.572 2007.87,-323.899"/>
<polygon fill="grey" stroke="grey" points="2008.97,-320.576 1998.38,-320.404 2006.55,-327.145 2008.97,-320.576"/>
</g>
<!-- 17 -->
<g id="node18" class="node"><title>17</title>
<path fill="none" stroke="#5673d8" stroke-width="2" d="M2194,-324C2194,-324 2084,-324 2084,-324 2078,-324 2072,-318 2072,-312 2072,-312 2072,-300 2072,-300 2072,-294 2078,-288 2084,-288 2084,-288 2194,-288 2194,-288 2200,-288 2206,-294 2206,-300 2206,-300 2206,-312 2206,-312 2206,-318 2200,-324 2194,-324"/>
<text text-anchor="middle" x="2139" y="-309" font-family="sans" font-size="10.00">gene_2_symbol</text>
<text text-anchor="middle" x="2139" y="-298" font-family="sans" font-size="10.00">prefix: results/counts/all</text>
</g>
<!-- 4&#45;&gt;17 -->
<g id="edge31" class="edge"><title>4&#45;&gt;17</title>
<path fill="none" stroke="grey" stroke-width="2" d="M2148.79,-359.697C2147.35,-351.983 2145.63,-342.712 2144.04,-334.112"/>
<polygon fill="grey" stroke="grey" points="2147.44,-333.297 2142.18,-324.104 2140.56,-334.575 2147.44,-333.297"/>
</g>
<!-- 36 -->
<g id="node37" class="node"><title>36</title>
<path fill="none" stroke="#70d856" stroke-width="2" d="M1634,-252C1634,-252 1604,-252 1604,-252 1598,-252 1592,-246 1592,-240 1592,-240 1592,-228 1592,-228 1592,-222 1598,-216 1604,-216 1604,-216 1634,-216 1634,-216 1640,-216 1646,-222 1646,-228 1646,-228 1646,-240 1646,-240 1646,-246 1640,-252 1634,-252"/>
<text text-anchor="middle" x="1619" y="-231.5" font-family="sans" font-size="10.00">tpm</text>
</g>
<!-- 4&#45;&gt;36 -->
<g id="edge77" class="edge"><title>4&#45;&gt;36</title>
<path fill="none" stroke="grey" stroke-width="2" d="M2111.48,-362.707C2108.29,-361.739 2105.1,-360.823 2102,-360 2020.62,-338.397 1997.76,-344.11 1916,-324 1821.28,-300.702 1711.83,-265.79 1655.97,-247.382"/>
<polygon fill="grey" stroke="grey" points="1656.78,-243.961 1646.18,-244.143 1654.58,-250.607 1656.78,-243.961"/>
</g>
<!-- 5 -->
<g id="node6" class="node"><title>5</title>
<path fill="none" stroke="#56d88a" stroke-width="2" d="M1601,-468C1601,-468 1571,-468 1571,-468 1565,-468 1559,-462 1559,-456 1559,-456 1559,-444 1559,-444 1559,-438 1565,-432 1571,-432 1571,-432 1601,-432 1601,-432 1607,-432 1613,-438 1613,-444 1613,-444 1613,-456 1613,-456 1613,-462 1607,-468 1601,-468"/>
<text text-anchor="middle" x="1586" y="-447.5" font-family="sans" font-size="10.00">align</text>
</g>
<!-- 5&#45;&gt;4 -->
<g id="edge16" class="edge"><title>5&#45;&gt;4</title>
<path fill="none" stroke="grey" stroke-width="2" d="M1613.2,-448.358C1689.24,-446.112 1910.39,-436.5 2101.61,-395.756"/>
<polygon fill="grey" stroke="grey" points="2102.52,-399.14 2111.56,-393.603 2101.04,-392.298 2102.52,-399.14"/>
</g>
<!-- 18 -->
<g id="node19" class="node"><title>18</title>
<path fill="none" stroke="#afd856" stroke-width="2" d="M1066,-324C1066,-324 1036,-324 1036,-324 1030,-324 1024,-318 1024,-312 1024,-312 1024,-300 1024,-300 1024,-294 1030,-288 1036,-288 1036,-288 1066,-288 1066,-288 1072,-288 1078,-294 1078,-300 1078,-300 1078,-312 1078,-312 1078,-318 1072,-324 1066,-324"/>
<text text-anchor="middle" x="1051" y="-303.5" font-family="sans" font-size="10.00">multiqc</text>
</g>
<!-- 5&#45;&gt;18 -->
<g id="edge32" class="edge"><title>5&#45;&gt;18</title>
<path fill="none" stroke="grey" stroke-width="2" d="M1613.24,-449.34C1699.95,-449.601 1959.42,-443.587 1881,-360 1867.24,-345.331 1248.32,-316.031 1088.39,-308.695"/>
<polygon fill="grey" stroke="grey" points="1088.26,-305.186 1078.11,-308.225 1087.94,-312.178 1088.26,-305.186"/>
</g>
<!-- 19 -->
<g id="node20" class="node"><title>19</title>
<path fill="none" stroke="#d8d356" stroke-width="2" d="M1111.25,-396C1111.25,-396 990.75,-396 990.75,-396 984.75,-396 978.75,-390 978.75,-384 978.75,-384 978.75,-372 978.75,-372 978.75,-366 984.75,-360 990.75,-360 990.75,-360 1111.25,-360 1111.25,-360 1117.25,-360 1123.25,-366 1123.25,-372 1123.25,-372 1123.25,-384 1123.25,-384 1123.25,-390 1117.25,-396 1111.25,-396"/>
<text text-anchor="middle" x="1051" y="-375.5" font-family="sans" font-size="10.00">rseqc_junction_annotation</text>
</g>
<!-- 5&#45;&gt;19 -->
<g id="edge50" class="edge"><title>5&#45;&gt;19</title>
<path fill="none" stroke="grey" stroke-width="2" d="M1558.82,-446.661C1489.66,-440.53 1301.19,-422.71 1133.38,-395.973"/>
<polygon fill="grey" stroke="grey" points="1133.8,-392.496 1123.37,-394.364 1132.69,-399.407 1133.8,-392.496"/>
</g>
<!-- 22 -->
<g id="node23" class="node"><title>22</title>
<path fill="none" stroke="#d89556" stroke-width="2" d="M1272,-396C1272,-396 1154,-396 1154,-396 1148,-396 1142,-390 1142,-384 1142,-384 1142,-372 1142,-372 1142,-366 1148,-360 1154,-360 1154,-360 1272,-360 1272,-360 1278,-360 1284,-366 1284,-372 1284,-372 1284,-384 1284,-384 1284,-390 1278,-396 1272,-396"/>
<text text-anchor="middle" x="1213" y="-375.5" font-family="sans" font-size="10.00">rseqc_junction_saturation</text>
</g>
<!-- 5&#45;&gt;22 -->
<g id="edge55" class="edge"><title>5&#45;&gt;22</title>
<path fill="none" stroke="grey" stroke-width="2" d="M1558.88,-444.379C1508.73,-435.771 1397.86,-416.458 1294.09,-396.186"/>
<polygon fill="grey" stroke="grey" points="1294.56,-392.711 1284.08,-394.221 1293.22,-399.58 1294.56,-392.711"/>
</g>
<!-- 24 -->
<g id="node25" class="node"><title>24</title>
<path fill="none" stroke="#56d87b" stroke-width="2" d="M1361.25,-396C1361.25,-396 1314.75,-396 1314.75,-396 1308.75,-396 1302.75,-390 1302.75,-384 1302.75,-384 1302.75,-372 1302.75,-372 1302.75,-366 1308.75,-360 1314.75,-360 1314.75,-360 1361.25,-360 1361.25,-360 1367.25,-360 1373.25,-366 1373.25,-372 1373.25,-372 1373.25,-384 1373.25,-384 1373.25,-390 1367.25,-396 1361.25,-396"/>
<text text-anchor="middle" x="1338" y="-375.5" font-family="sans" font-size="10.00">rseqc_infer</text>
</g>
<!-- 5&#45;&gt;24 -->
<g id="edge59" class="edge"><title>5&#45;&gt;24</title>
<path fill="none" stroke="grey" stroke-width="2" d="M1558.99,-443.022C1521.43,-434.488 1451.2,-417.723 1383.02,-396.159"/>
<polygon fill="grey" stroke="grey" points="1384.01,-392.8 1373.42,-393.084 1381.87,-399.467 1384.01,-392.8"/>
</g>
<!-- 26 -->
<g id="node27" class="node"><title>26</title>
<path fill="none" stroke="#d85656" stroke-width="2" d="M1654.25,-396C1654.25,-396 1611.75,-396 1611.75,-396 1605.75,-396 1599.75,-390 1599.75,-384 1599.75,-384 1599.75,-372 1599.75,-372 1599.75,-366 1605.75,-360 1611.75,-360 1611.75,-360 1654.25,-360 1654.25,-360 1660.25,-360 1666.25,-366 1666.25,-372 1666.25,-372 1666.25,-384 1666.25,-384 1666.25,-390 1660.25,-396 1654.25,-396"/>
<text text-anchor="middle" x="1633" y="-375.5" font-family="sans" font-size="10.00">rseqc_stat</text>
</g>
<!-- 5&#45;&gt;26 -->
<g id="edge63" class="edge"><title>5&#45;&gt;26</title>
<path fill="none" stroke="grey" stroke-width="2" d="M1597.62,-431.697C1603.14,-423.474 1609.85,-413.483 1615.93,-404.421"/>
<polygon fill="grey" stroke="grey" points="1618.85,-406.358 1621.52,-396.104 1613.04,-402.456 1618.85,-406.358"/>
</g>
<!-- 28 -->
<g id="node29" class="node"><title>28</title>
<path fill="none" stroke="#5663d8" stroke-width="2" d="M1466.25,-396C1466.25,-396 1403.75,-396 1403.75,-396 1397.75,-396 1391.75,-390 1391.75,-384 1391.75,-384 1391.75,-372 1391.75,-372 1391.75,-366 1397.75,-360 1403.75,-360 1403.75,-360 1466.25,-360 1466.25,-360 1472.25,-360 1478.25,-366 1478.25,-372 1478.25,-372 1478.25,-384 1478.25,-384 1478.25,-390 1472.25,-396 1466.25,-396"/>
<text text-anchor="middle" x="1435" y="-375.5" font-family="sans" font-size="10.00">rseqc_innerdis</text>
</g>
<!-- 5&#45;&gt;28 -->
<g id="edge65" class="edge"><title>5&#45;&gt;28</title>
<path fill="none" stroke="grey" stroke-width="2" d="M1558.66,-436.324C1537.01,-426.288 1506.29,-412.05 1480.89,-400.275"/>
<polygon fill="grey" stroke="grey" points="1482.35,-397.091 1471.8,-396.06 1479.4,-403.442 1482.35,-397.091"/>
</g>
<!-- 30 -->
<g id="node31" class="node"><title>30</title>
<path fill="none" stroke="#5692d8" stroke-width="2" d="M1569,-396C1569,-396 1509,-396 1509,-396 1503,-396 1497,-390 1497,-384 1497,-384 1497,-372 1497,-372 1497,-366 1503,-360 1509,-360 1509,-360 1569,-360 1569,-360 1575,-360 1581,-366 1581,-372 1581,-372 1581,-384 1581,-384 1581,-390 1575,-396 1569,-396"/>
<text text-anchor="middle" x="1539" y="-375.5" font-family="sans" font-size="10.00">rseqc_readdis</text>
</g>
<!-- 5&#45;&gt;30 -->
<g id="edge69" class="edge"><title>5&#45;&gt;30</title>
<path fill="none" stroke="grey" stroke-width="2" d="M1574.38,-431.697C1568.86,-423.474 1562.15,-413.483 1556.07,-404.421"/>
<polygon fill="grey" stroke="grey" points="1558.96,-402.456 1550.48,-396.104 1553.15,-406.358 1558.96,-402.456"/>
</g>
<!-- 32 -->
<g id="node33" class="node"><title>32</title>
<path fill="none" stroke="#8fd856" stroke-width="2" d="M1761,-396C1761,-396 1697,-396 1697,-396 1691,-396 1685,-390 1685,-384 1685,-384 1685,-372 1685,-372 1685,-366 1691,-360 1697,-360 1697,-360 1761,-360 1761,-360 1767,-360 1773,-366 1773,-372 1773,-372 1773,-384 1773,-384 1773,-390 1767,-396 1761,-396"/>
<text text-anchor="middle" x="1729" y="-375.5" font-family="sans" font-size="10.00">rseqc_readdup</text>
</g>
<!-- 5&#45;&gt;32 -->
<g id="edge73" class="edge"><title>5&#45;&gt;32</title>
<path fill="none" stroke="grey" stroke-width="2" d="M1613.23,-435.669C1633.55,-425.723 1661.73,-411.929 1685.2,-400.441"/>
<polygon fill="grey" stroke="grey" points="1686.82,-403.543 1694.27,-396.002 1683.75,-397.255 1686.82,-403.543"/>
</g>
<!-- 34 -->
<g id="node35" class="node"><title>34</title>
<path fill="none" stroke="#d8c356" stroke-width="2" d="M1860.25,-396C1860.25,-396 1803.75,-396 1803.75,-396 1797.75,-396 1791.75,-390 1791.75,-384 1791.75,-384 1791.75,-372 1791.75,-372 1791.75,-366 1797.75,-360 1803.75,-360 1803.75,-360 1860.25,-360 1860.25,-360 1866.25,-360 1872.25,-366 1872.25,-372 1872.25,-372 1872.25,-384 1872.25,-384 1872.25,-390 1866.25,-396 1860.25,-396"/>
<text text-anchor="middle" x="1832" y="-375.5" font-family="sans" font-size="10.00">rseqc_readgc</text>
</g>
<!-- 5&#45;&gt;34 -->
<g id="edge75" class="edge"><title>5&#45;&gt;34</title>
<path fill="none" stroke="grey" stroke-width="2" d="M1613.1,-442.253C1651.07,-432.67 1722.15,-414.246 1782,-396 1782.1,-395.97 1782.2,-395.94 1782.3,-395.91"/>
<polygon fill="grey" stroke="grey" points="1783.2,-399.296 1791.68,-392.953 1781.09,-392.619 1783.2,-399.296"/>
</g>
<!-- 42 -->
<g id="node43" class="node"><title>42</title>
<path fill="none" stroke="#56d89a" stroke-width="2" d="M2081,-396C2081,-396 1941,-396 1941,-396 1935,-396 1929,-390 1929,-384 1929,-384 1929,-372 1929,-372 1929,-366 1935,-360 1941,-360 1941,-360 2081,-360 2081,-360 2087,-360 2093,-366 2093,-372 2093,-372 2093,-384 2093,-384 2093,-390 2087,-396 2081,-396"/>
<text text-anchor="middle" x="2011" y="-381" font-family="sans" font-size="10.00">rmats</text>
<text text-anchor="middle" x="2011" y="-370" font-family="sans" font-size="10.00">contrast: treated&#45;vs&#45;untreated</text>
</g>
<!-- 5&#45;&gt;42 -->
<g id="edge84" class="edge"><title>5&#45;&gt;42</title>
<path fill="none" stroke="grey" stroke-width="2" d="M1613.32,-444.746C1669.74,-435.929 1803.19,-414.904 1915,-396 1916.27,-395.786 1917.54,-395.569 1918.83,-395.351"/>
<polygon fill="grey" stroke="grey" points="1919.53,-398.782 1928.8,-393.644 1918.35,-391.882 1919.53,-398.782"/>
</g>
<!-- 6 -->
<g id="node7" class="node"><title>6</title>
<path fill="none" stroke="#d8b456" stroke-width="2" d="M1973.25,-540C1973.25,-540 1920.75,-540 1920.75,-540 1914.75,-540 1908.75,-534 1908.75,-528 1908.75,-528 1908.75,-516 1908.75,-516 1908.75,-510 1914.75,-504 1920.75,-504 1920.75,-504 1973.25,-504 1973.25,-504 1979.25,-504 1985.25,-510 1985.25,-516 1985.25,-516 1985.25,-528 1985.25,-528 1985.25,-534 1979.25,-540 1973.25,-540"/>
<text text-anchor="middle" x="1947" y="-519.5" font-family="sans" font-size="10.00">cutadapt_pe</text>
</g>
<!-- 6&#45;&gt;5 -->
<g id="edge18" class="edge"><title>6&#45;&gt;5</title>
<path fill="none" stroke="grey" stroke-width="2" d="M1908.71,-513.575C1838.98,-500.054 1692.14,-471.58 1623.21,-458.215"/>
<polygon fill="grey" stroke="grey" points="1623.72,-454.748 1613.23,-456.281 1622.38,-461.62 1623.72,-454.748"/>
</g>
<!-- 43 -->
<g id="node44" class="node"><title>43</title>
<path fill="none" stroke="#56d85b" stroke-width="2" d="M2339,-252C2339,-252 2297,-252 2297,-252 2291,-252 2285,-246 2285,-240 2285,-240 2285,-228 2285,-228 2285,-222 2291,-216 2297,-216 2297,-216 2339,-216 2339,-216 2345,-216 2351,-222 2351,-228 2351,-228 2351,-240 2351,-240 2351,-246 2345,-252 2339,-252"/>
<text text-anchor="middle" x="2318" y="-231.5" font-family="sans" font-size="10.00">starFusion</text>
</g>
<!-- 6&#45;&gt;43 -->
<g id="edge86" class="edge"><title>6&#45;&gt;43</title>
<path fill="none" stroke="grey" stroke-width="2" d="M1985.52,-509.676C2042.81,-491.656 2152.26,-452.609 2232,-396 2267.64,-370.697 2278.82,-362.774 2299,-324 2309,-304.786 2313.74,-280.628 2315.98,-262.33"/>
<polygon fill="grey" stroke="grey" points="2319.47,-262.628 2317.04,-252.316 2312.51,-261.895 2319.47,-262.628"/>
</g>
<!-- 7 -->
<g id="node8" class="node"><title>7</title>
<path fill="none" stroke="#5682d8" stroke-width="2" d="M1926,-639.5C1926,-639.5 1864,-639.5 1864,-639.5 1858,-639.5 1852,-633.5 1852,-627.5 1852,-627.5 1852,-588.5 1852,-588.5 1852,-582.5 1858,-576.5 1864,-576.5 1864,-576.5 1926,-576.5 1926,-576.5 1932,-576.5 1938,-582.5 1938,-588.5 1938,-588.5 1938,-627.5 1938,-627.5 1938,-633.5 1932,-639.5 1926,-639.5"/>
<text text-anchor="middle" x="1895" y="-627.5" font-family="sans" font-size="10.00">cutadapt_pipe</text>
<text text-anchor="middle" x="1895" y="-616.5" font-family="sans" font-size="10.00">ext: fastq.gz</text>
<text text-anchor="middle" x="1895" y="-605.5" font-family="sans" font-size="10.00">fq: fq1</text>
<text text-anchor="middle" x="1895" y="-594.5" font-family="sans" font-size="10.00">sample: A</text>
<text text-anchor="middle" x="1895" y="-583.5" font-family="sans" font-size="10.00">unit: lane1</text>
</g>
<!-- 7&#45;&gt;6 -->
<g id="edge21" class="edge"><title>7&#45;&gt;6</title>
<path fill="none" stroke="grey" stroke-width="2" d="M1914.07,-576.198C1919.66,-567.163 1925.72,-557.382 1931.09,-548.7"/>
<polygon fill="grey" stroke="grey" points="1934.11,-550.473 1936.4,-540.128 1928.16,-546.789 1934.11,-550.473"/>
</g>
<!-- 8 -->
<g id="node9" class="node"><title>8</title>
<path fill="none" stroke="#5682d8" stroke-width="2" d="M2030,-639.5C2030,-639.5 1968,-639.5 1968,-639.5 1962,-639.5 1956,-633.5 1956,-627.5 1956,-627.5 1956,-588.5 1956,-588.5 1956,-582.5 1962,-576.5 1968,-576.5 1968,-576.5 2030,-576.5 2030,-576.5 2036,-576.5 2042,-582.5 2042,-588.5 2042,-588.5 2042,-627.5 2042,-627.5 2042,-633.5 2036,-639.5 2030,-639.5"/>
<text text-anchor="middle" x="1999" y="-627.5" font-family="sans" font-size="10.00">cutadapt_pipe</text>
<text text-anchor="middle" x="1999" y="-616.5" font-family="sans" font-size="10.00">ext: fastq.gz</text>
<text text-anchor="middle" x="1999" y="-605.5" font-family="sans" font-size="10.00">fq: fq2</text>
<text text-anchor="middle" x="1999" y="-594.5" font-family="sans" font-size="10.00">sample: A</text>
<text text-anchor="middle" x="1999" y="-583.5" font-family="sans" font-size="10.00">unit: lane1</text>
</g>
<!-- 8&#45;&gt;6 -->
<g id="edge22" class="edge"><title>8&#45;&gt;6</title>
<path fill="none" stroke="grey" stroke-width="2" d="M1979.93,-576.198C1974.34,-567.163 1968.28,-557.382 1962.91,-548.7"/>
<polygon fill="grey" stroke="grey" points="1965.84,-546.789 1957.6,-540.128 1959.89,-550.473 1965.84,-546.789"/>
</g>
<!-- 9 -->
<g id="node10" class="node"><title>9</title>
<path fill="none" stroke="#56d8b9" stroke-width="2" d="M1017,-540C1017,-540 973,-540 973,-540 967,-540 961,-534 961,-528 961,-528 961,-516 961,-516 961,-510 967,-504 973,-504 973,-504 1017,-504 1017,-504 1023,-504 1029,-510 1029,-516 1029,-516 1029,-528 1029,-528 1029,-534 1023,-540 1017,-540"/>
<text text-anchor="middle" x="995" y="-519.5" font-family="sans" font-size="10.00">star_index</text>
</g>
<!-- 9&#45;&gt;5 -->
<g id="edge19" class="edge"><title>9&#45;&gt;5</title>
<path fill="none" stroke="grey" stroke-width="2" d="M1029.33,-516.934C1132.92,-504.664 1441.83,-468.075 1548.94,-455.389"/>
<polygon fill="grey" stroke="grey" points="1549.44,-458.855 1558.96,-454.203 1548.61,-451.904 1549.44,-458.855"/>
</g>
<!-- 12 -->
<g id="node13" class="node"><title>12</title>
<path fill="none" stroke="#56d88a" stroke-width="2" d="M756,-468C756,-468 726,-468 726,-468 720,-468 714,-462 714,-456 714,-456 714,-444 714,-444 714,-438 720,-432 726,-432 726,-432 756,-432 756,-432 762,-432 768,-438 768,-444 768,-444 768,-456 768,-456 768,-462 762,-468 756,-468"/>
<text text-anchor="middle" x="741" y="-447.5" font-family="sans" font-size="10.00">align</text>
</g>
<!-- 9&#45;&gt;12 -->
<g id="edge26" class="edge"><title>9&#45;&gt;12</title>
<path fill="none" stroke="grey" stroke-width="2" d="M960.744,-511.559C913.084,-498.425 827.107,-474.73 778.016,-461.201"/>
<polygon fill="grey" stroke="grey" points="778.698,-457.759 768.128,-458.476 776.839,-464.507 778.698,-457.759"/>
</g>
<!-- 10 -->
<g id="node11" class="node"><title>10</title>
<path fill="none" stroke="#ced856" stroke-width="2" d="M1021.25,-626C1021.25,-626 968.75,-626 968.75,-626 962.75,-626 956.75,-620 956.75,-614 956.75,-614 956.75,-602 956.75,-602 956.75,-596 962.75,-590 968.75,-590 968.75,-590 1021.25,-590 1021.25,-590 1027.25,-590 1033.25,-596 1033.25,-602 1033.25,-602 1033.25,-614 1033.25,-614 1033.25,-620 1027.25,-626 1021.25,-626"/>
<text text-anchor="middle" x="995" y="-605.5" font-family="sans" font-size="10.00">get_genome</text>
</g>
<!-- 10&#45;&gt;9 -->
<g id="edge23" class="edge"><title>10&#45;&gt;9</title>
<path fill="none" stroke="grey" stroke-width="2" d="M995,-589.595C995,-578.257 995,-563.227 995,-550.315"/>
<polygon fill="grey" stroke="grey" points="998.5,-550.095 995,-540.095 991.5,-550.095 998.5,-550.095"/>
</g>
<!-- 11 -->
<g id="node12" class="node"><title>11</title>
<path fill="none" stroke="#61d856" stroke-width="2" d="M926,-626C926,-626 860,-626 860,-626 854,-626 848,-620 848,-614 848,-614 848,-602 848,-602 848,-596 854,-590 860,-590 860,-590 926,-590 926,-590 932,-590 938,-596 938,-602 938,-602 938,-614 938,-614 938,-620 932,-626 926,-626"/>
<text text-anchor="middle" x="893" y="-605.5" font-family="sans" font-size="10.00">get_annotation</text>
</g>
<!-- 11&#45;&gt;5 -->
<g id="edge20" class="edge"><title>11&#45;&gt;5</title>
<path fill="none" stroke="grey" stroke-width="2" d="M900.387,-589.989C912.269,-563.469 935.921,-514.238 952,-504 1002.41,-471.903 1420.68,-456.197 1548.83,-452.107"/>
<polygon fill="grey" stroke="grey" points="1549.05,-455.602 1558.93,-451.79 1548.83,-448.606 1549.05,-455.602"/>
</g>
<!-- 11&#45;&gt;9 -->
<g id="edge24" class="edge"><title>11&#45;&gt;9</title>
<path fill="none" stroke="grey" stroke-width="2" d="M914.134,-589.595C929.279,-577.123 949.848,-560.184 966.451,-546.511"/>
<polygon fill="grey" stroke="grey" points="968.747,-549.154 974.242,-540.095 964.297,-543.75 968.747,-549.154"/>
</g>
<!-- 11&#45;&gt;12 -->
<g id="edge27" class="edge"><title>11&#45;&gt;12</title>
<path fill="none" stroke="grey" stroke-width="2" d="M876.153,-589.709C849.104,-561.948 795.893,-507.337 764.919,-475.548"/>
<polygon fill="grey" stroke="grey" points="767.408,-473.088 757.923,-468.368 762.395,-477.973 767.408,-473.088"/>
</g>
<!-- 20 -->
<g id="node21" class="node"><title>20</title>
<path fill="none" stroke="#56d86b" stroke-width="2" d="M948,-468C948,-468 886,-468 886,-468 880,-468 874,-462 874,-456 874,-456 874,-444 874,-444 874,-438 880,-432 886,-432 886,-432 948,-432 948,-432 954,-432 960,-438 960,-444 960,-444 960,-456 960,-456 960,-462 954,-468 948,-468"/>
<text text-anchor="middle" x="917" y="-447.5" font-family="sans" font-size="10.00">rseqc_gtf2bed</text>
</g>
<!-- 11&#45;&gt;20 -->
<g id="edge52" class="edge"><title>11&#45;&gt;20</title>
<path fill="none" stroke="grey" stroke-width="2" d="M895.66,-589.709C899.805,-562.768 907.84,-510.54 912.781,-478.423"/>
<polygon fill="grey" stroke="grey" points="916.267,-478.784 914.328,-468.368 909.348,-477.72 916.267,-478.784"/>
</g>
<!-- 11&#45;&gt;36 -->
<g id="edge78" class="edge"><title>11&#45;&gt;36</title>
<path fill="none" stroke="grey" stroke-width="2" d="M847.797,-603.947C666.265,-591.096 0,-538.003 0,-451 0,-451 0,-451 0,-377 0,-365.669 8.58075,-364.454 19,-360 313.475,-234.13 1369.23,-233.521 1581.62,-234.707"/>
<polygon fill="grey" stroke="grey" points="1581.9,-238.209 1591.93,-234.77 1581.95,-231.209 1581.9,-238.209"/>
</g>
<!-- 12&#45;&gt;4 -->
<g id="edge17" class="edge"><title>12&#45;&gt;4</title>
<path fill="none" stroke="grey" stroke-width="2" d="M768,-444.448C793.058,-440.427 831.435,-434.781 865,-432 1135.85,-409.557 1815.19,-443.981 2101.59,-395.616"/>
<polygon fill="grey" stroke="grey" points="2102.36,-399.034 2111.61,-393.86 2101.15,-392.139 2102.36,-399.034"/>
</g>
<!-- 12&#45;&gt;18 -->
<g id="edge33" class="edge"><title>12&#45;&gt;18</title>
<path fill="none" stroke="grey" stroke-width="2" d="M713.873,-448.06C617.146,-444.431 293.282,-429.826 263,-396 252.328,-384.079 252.072,-371.687 263,-360 314.727,-304.678 864.146,-305.37 1013.63,-306.597"/>
<polygon fill="grey" stroke="grey" points="1013.66,-310.098 1023.69,-306.686 1013.72,-303.098 1013.66,-310.098"/>
</g>
<!-- 21 -->
<g id="node22" class="node"><title>21</title>
<path fill="none" stroke="#d8d356" stroke-width="2" d="M593.25,-396C593.25,-396 472.75,-396 472.75,-396 466.75,-396 460.75,-390 460.75,-384 460.75,-384 460.75,-372 460.75,-372 460.75,-366 466.75,-360 472.75,-360 472.75,-360 593.25,-360 593.25,-360 599.25,-360 605.25,-366 605.25,-372 605.25,-372 605.25,-384 605.25,-384 605.25,-390 599.25,-396 593.25,-396"/>
<text text-anchor="middle" x="533" y="-375.5" font-family="sans" font-size="10.00">rseqc_junction_annotation</text>
</g>
<!-- 12&#45;&gt;21 -->
<g id="edge53" class="edge"><title>12&#45;&gt;21</title>
<path fill="none" stroke="grey" stroke-width="2" d="M713.808,-439.849C683.39,-429.612 633.167,-412.71 593.362,-399.314"/>
<polygon fill="grey" stroke="grey" points="594.339,-395.95 583.745,-396.078 592.107,-402.585 594.339,-395.95"/>
</g>
<!-- 23 -->
<g id="node24" class="node"><title>23</title>
<path fill="none" stroke="#d89556" stroke-width="2" d="M754,-396C754,-396 636,-396 636,-396 630,-396 624,-390 624,-384 624,-384 624,-372 624,-372 624,-366 630,-360 636,-360 636,-360 754,-360 754,-360 760,-360 766,-366 766,-372 766,-372 766,-384 766,-384 766,-390 760,-396 754,-396"/>
<text text-anchor="middle" x="695" y="-375.5" font-family="sans" font-size="10.00">rseqc_junction_saturation</text>
</g>
<!-- 12&#45;&gt;23 -->
<g id="edge57" class="edge"><title>12&#45;&gt;23</title>
<path fill="none" stroke="grey" stroke-width="2" d="M729.629,-431.697C724.282,-423.559 717.796,-413.689 711.889,-404.701"/>
<polygon fill="grey" stroke="grey" points="714.657,-402.539 706.24,-396.104 708.807,-406.384 714.657,-402.539"/>
</g>
<!-- 25 -->
<g id="node26" class="node"><title>25</title>
<path fill="none" stroke="#56d87b" stroke-width="2" d="M843.25,-396C843.25,-396 796.75,-396 796.75,-396 790.75,-396 784.75,-390 784.75,-384 784.75,-384 784.75,-372 784.75,-372 784.75,-366 790.75,-360 796.75,-360 796.75,-360 843.25,-360 843.25,-360 849.25,-360 855.25,-366 855.25,-372 855.25,-372 855.25,-384 855.25,-384 855.25,-390 849.25,-396 843.25,-396"/>
<text text-anchor="middle" x="820" y="-375.5" font-family="sans" font-size="10.00">rseqc_infer</text>
</g>
<!-- 12&#45;&gt;25 -->
<g id="edge61" class="edge"><title>12&#45;&gt;25</title>
<path fill="none" stroke="grey" stroke-width="2" d="M760.528,-431.697C770.382,-422.965 782.486,-412.24 793.196,-402.75"/>
<polygon fill="grey" stroke="grey" points="795.533,-405.356 800.697,-396.104 790.891,-400.117 795.533,-405.356"/>
</g>
<!-- 27 -->
<g id="node28" class="node"><title>27</title>
<path fill="none" stroke="#d85656" stroke-width="2" d="M327.25,-396C327.25,-396 284.75,-396 284.75,-396 278.75,-396 272.75,-390 272.75,-384 272.75,-384 272.75,-372 272.75,-372 272.75,-366 278.75,-360 284.75,-360 284.75,-360 327.25,-360 327.25,-360 333.25,-360 339.25,-366 339.25,-372 339.25,-372 339.25,-384 339.25,-384 339.25,-390 333.25,-396 327.25,-396"/>
<text text-anchor="middle" x="306" y="-375.5" font-family="sans" font-size="10.00">rseqc_stat</text>
</g>
<!-- 12&#45;&gt;27 -->
<g id="edge64" class="edge"><title>12&#45;&gt;27</title>
<path fill="none" stroke="grey" stroke-width="2" d="M713.949,-447.599C651.135,-443.872 490.648,-431.619 349.258,-395.668"/>
<polygon fill="grey" stroke="grey" points="350.101,-392.271 339.543,-393.152 348.346,-399.047 350.101,-392.271"/>
</g>
<!-- 29 -->
<g id="node30" class="node"><title>29</title>
<path fill="none" stroke="#5663d8" stroke-width="2" d="M948.25,-396C948.25,-396 885.75,-396 885.75,-396 879.75,-396 873.75,-390 873.75,-384 873.75,-384 873.75,-372 873.75,-372 873.75,-366 879.75,-360 885.75,-360 885.75,-360 948.25,-360 948.25,-360 954.25,-360 960.25,-366 960.25,-372 960.25,-372 960.25,-384 960.25,-384 960.25,-390 954.25,-396 948.25,-396"/>
<text text-anchor="middle" x="917" y="-375.5" font-family="sans" font-size="10.00">rseqc_innerdis</text>
</g>
<!-- 12&#45;&gt;29 -->
<g id="edge67" class="edge"><title>12&#45;&gt;29</title>
<path fill="none" stroke="grey" stroke-width="2" d="M768.114,-438.216C793.718,-428.033 832.809,-412.485 864.512,-399.876"/>
<polygon fill="grey" stroke="grey" points="866.092,-403.014 874.091,-396.066 863.505,-396.51 866.092,-403.014"/>
</g>
<!-- 31 -->
<g id="node32" class="node"><title>31</title>
<path fill="none" stroke="#5692d8" stroke-width="2" d="M430,-396C430,-396 370,-396 370,-396 364,-396 358,-390 358,-384 358,-384 358,-372 358,-372 358,-366 364,-360 370,-360 370,-360 430,-360 430,-360 436,-360 442,-366 442,-372 442,-372 442,-384 442,-384 442,-390 436,-396 430,-396"/>
<text text-anchor="middle" x="400" y="-375.5" font-family="sans" font-size="10.00">rseqc_readdis</text>
</g>
<!-- 12&#45;&gt;31 -->
<g id="edge71" class="edge"><title>12&#45;&gt;31</title>
<path fill="none" stroke="grey" stroke-width="2" d="M713.938,-445.356C663.931,-438.346 553.61,-421.587 451.971,-396.062"/>
<polygon fill="grey" stroke="grey" points="452.719,-392.64 442.164,-393.564 450.991,-399.424 452.719,-392.64"/>
</g>
<!-- 33 -->
<g id="node34" class="node"><title>33</title>
<path fill="none" stroke="#8fd856" stroke-width="2" d="M104,-396C104,-396 40,-396 40,-396 34,-396 28,-390 28,-384 28,-384 28,-372 28,-372 28,-366 34,-360 40,-360 40,-360 104,-360 104,-360 110,-360 116,-366 116,-372 116,-372 116,-384 116,-384 116,-390 110,-396 104,-396"/>
<text text-anchor="middle" x="72" y="-375.5" font-family="sans" font-size="10.00">rseqc_readdup</text>
</g>
<!-- 12&#45;&gt;33 -->
<g id="edge74" class="edge"><title>12&#45;&gt;33</title>
<path fill="none" stroke="grey" stroke-width="2" d="M713.978,-448.829C628.624,-447.837 357.258,-441.242 125.99,-395.923"/>
<polygon fill="grey" stroke="grey" points="126.541,-392.464 116.05,-393.946 125.176,-399.33 126.541,-392.464"/>
</g>
<!-- 35 -->
<g id="node36" class="node"><title>35</title>
<path fill="none" stroke="#d8c356" stroke-width="2" d="M203.25,-396C203.25,-396 146.75,-396 146.75,-396 140.75,-396 134.75,-390 134.75,-384 134.75,-384 134.75,-372 134.75,-372 134.75,-366 140.75,-360 146.75,-360 146.75,-360 203.25,-360 203.25,-360 209.25,-360 215.25,-366 215.25,-372 215.25,-372 215.25,-384 215.25,-384 215.25,-390 209.25,-396 203.25,-396"/>
<text text-anchor="middle" x="175" y="-375.5" font-family="sans" font-size="10.00">rseqc_readgc</text>
</g>
<!-- 12&#45;&gt;35 -->
<g id="edge76" class="edge"><title>12&#45;&gt;35</title>
<path fill="none" stroke="grey" stroke-width="2" d="M713.845,-448.059C637.115,-445.001 412.417,-433.275 230,-396 228.501,-395.694 226.984,-395.363 225.457,-395.012"/>
<polygon fill="grey" stroke="grey" points="225.868,-391.506 215.315,-392.447 224.151,-398.292 225.868,-391.506"/>
</g>
<!-- 12&#45;&gt;42 -->
<g id="edge85" class="edge"><title>12&#45;&gt;42</title>
<path fill="none" stroke="grey" stroke-width="2" d="M768.004,-444.498C793.065,-440.51 831.444,-434.887 865,-432 1315.18,-393.265 1430.71,-433.336 1881,-396 1893.26,-394.983 1906.14,-393.638 1918.83,-392.149"/>
<polygon fill="grey" stroke="grey" points="1919.44,-395.6 1928.95,-390.926 1918.6,-388.651 1919.44,-395.6"/>
</g>
<!-- 13 -->
<g id="node14" class="node"><title>13</title>
<path fill="none" stroke="#d8b456" stroke-width="2" d="M1432.25,-540C1432.25,-540 1379.75,-540 1379.75,-540 1373.75,-540 1367.75,-534 1367.75,-528 1367.75,-528 1367.75,-516 1367.75,-516 1367.75,-510 1373.75,-504 1379.75,-504 1379.75,-504 1432.25,-504 1432.25,-504 1438.25,-504 1444.25,-510 1444.25,-516 1444.25,-516 1444.25,-528 1444.25,-528 1444.25,-534 1438.25,-540 1432.25,-540"/>
<text text-anchor="middle" x="1406" y="-519.5" font-family="sans" font-size="10.00">cutadapt_pe</text>
</g>
<!-- 13&#45;&gt;12 -->
<g id="edge25" class="edge"><title>13&#45;&gt;12</title>
<path fill="none" stroke="grey" stroke-width="2" d="M1367.57,-517.749C1278.9,-510.134 1053.16,-490.106 865,-468 835.731,-464.561 802.671,-459.995 778.052,-456.46"/>
<polygon fill="grey" stroke="grey" points="778.452,-452.982 768.054,-455.015 777.45,-459.91 778.452,-452.982"/>
</g>
<!-- 44 -->
<g id="node45" class="node"><title>44</title>
<path fill="none" stroke="#56d85b" stroke-width="2" d="M2278,-324C2278,-324 2236,-324 2236,-324 2230,-324 2224,-318 2224,-312 2224,-312 2224,-300 2224,-300 2224,-294 2230,-288 2236,-288 2236,-288 2278,-288 2278,-288 2284,-288 2290,-294 2290,-300 2290,-300 2290,-312 2290,-312 2290,-318 2284,-324 2278,-324"/>
<text text-anchor="middle" x="2257" y="-303.5" font-family="sans" font-size="10.00">starFusion</text>
</g>
<!-- 13&#45;&gt;44 -->
<g id="edge87" class="edge"><title>13&#45;&gt;44</title>
<path fill="none" stroke="grey" stroke-width="2" d="M1444.46,-519.119C1585.63,-511.591 2073.68,-479.882 2201,-396 2223.4,-381.241 2238.54,-354.099 2247.37,-333.654"/>
<polygon fill="grey" stroke="grey" points="2250.67,-334.821 2251.2,-324.239 2244.19,-332.182 2250.67,-334.821"/>
</g>
<!-- 14 -->
<g id="node15" class="node"><title>14</title>
<path fill="none" stroke="#5682d8" stroke-width="2" d="M1385,-639.5C1385,-639.5 1323,-639.5 1323,-639.5 1317,-639.5 1311,-633.5 1311,-627.5 1311,-627.5 1311,-588.5 1311,-588.5 1311,-582.5 1317,-576.5 1323,-576.5 1323,-576.5 1385,-576.5 1385,-576.5 1391,-576.5 1397,-582.5 1397,-588.5 1397,-588.5 1397,-627.5 1397,-627.5 1397,-633.5 1391,-639.5 1385,-639.5"/>
<text text-anchor="middle" x="1354" y="-627.5" font-family="sans" font-size="10.00">cutadapt_pipe</text>
<text text-anchor="middle" x="1354" y="-616.5" font-family="sans" font-size="10.00">ext: fastq.gz</text>
<text text-anchor="middle" x="1354" y="-605.5" font-family="sans" font-size="10.00">fq: fq1</text>
<text text-anchor="middle" x="1354" y="-594.5" font-family="sans" font-size="10.00">sample: B</text>
<text text-anchor="middle" x="1354" y="-583.5" font-family="sans" font-size="10.00">unit: lane1</text>
</g>
<!-- 14&#45;&gt;13 -->
<g id="edge28" class="edge"><title>14&#45;&gt;13</title>
<path fill="none" stroke="grey" stroke-width="2" d="M1373.07,-576.198C1378.66,-567.163 1384.72,-557.382 1390.09,-548.7"/>
<polygon fill="grey" stroke="grey" points="1393.11,-550.473 1395.4,-540.128 1387.16,-546.789 1393.11,-550.473"/>
</g>
<!-- 15 -->
<g id="node16" class="node"><title>15</title>
<path fill="none" stroke="#5682d8" stroke-width="2" d="M1489,-639.5C1489,-639.5 1427,-639.5 1427,-639.5 1421,-639.5 1415,-633.5 1415,-627.5 1415,-627.5 1415,-588.5 1415,-588.5 1415,-582.5 1421,-576.5 1427,-576.5 1427,-576.5 1489,-576.5 1489,-576.5 1495,-576.5 1501,-582.5 1501,-588.5 1501,-588.5 1501,-627.5 1501,-627.5 1501,-633.5 1495,-639.5 1489,-639.5"/>
<text text-anchor="middle" x="1458" y="-627.5" font-family="sans" font-size="10.00">cutadapt_pipe</text>
<text text-anchor="middle" x="1458" y="-616.5" font-family="sans" font-size="10.00">ext: fastq.gz</text>
<text text-anchor="middle" x="1458" y="-605.5" font-family="sans" font-size="10.00">fq: fq2</text>
<text text-anchor="middle" x="1458" y="-594.5" font-family="sans" font-size="10.00">sample: B</text>
<text text-anchor="middle" x="1458" y="-583.5" font-family="sans" font-size="10.00">unit: lane1</text>
</g>
<!-- 15&#45;&gt;13 -->
<g id="edge29" class="edge"><title>15&#45;&gt;13</title>
<path fill="none" stroke="grey" stroke-width="2" d="M1438.93,-576.198C1433.34,-567.163 1427.28,-557.382 1421.91,-548.7"/>
<polygon fill="grey" stroke="grey" points="1424.84,-546.789 1416.6,-540.128 1418.89,-550.473 1424.84,-546.789"/>
</g>
<!-- 16&#45;&gt;0 -->
<g id="edge2" class="edge"><title>16&#45;&gt;0</title>
<path fill="none" stroke="grey" stroke-width="2" d="M1807.58,-71.6966C1814.66,-63.3046 1823.28,-53.0705 1831.05,-43.8613"/>
<polygon fill="grey" stroke="grey" points="1833.81,-46.0063 1837.58,-36.1043 1828.46,-41.495 1833.81,-46.0063"/>
</g>
<!-- 17&#45;&gt;0 -->
<g id="edge3" class="edge"><title>17&#45;&gt;0</title>
<path fill="none" stroke="grey" stroke-width="2" d="M2150.41,-287.713C2165.05,-264.406 2189.65,-221.076 2199,-180 2210.66,-128.782 2194.96,-100.747 2151,-72 2108.4,-44.145 1959.96,-28.1579 1889.58,-21.9825"/>
<polygon fill="grey" stroke="grey" points="1889.64,-18.4754 1879.38,-21.1088 1889.05,-25.4498 1889.64,-18.4754"/>
</g>
<!-- 18&#45;&gt;0 -->
<g id="edge4" class="edge"><title>18&#45;&gt;0</title>
<path fill="none" stroke="grey" stroke-width="2" d="M1076.36,-287.872C1142.49,-244.094 1326.98,-127.643 1498,-72 1609.4,-35.756 1748.68,-24.1513 1814.38,-20.5516"/>
<polygon fill="grey" stroke="grey" points="1814.85,-24.0323 1824.66,-20.0219 1814.49,-17.0416 1814.85,-24.0323"/>
</g>
<!-- 19&#45;&gt;18 -->
<g id="edge34" class="edge"><title>19&#45;&gt;18</title>
<path fill="none" stroke="grey" stroke-width="2" d="M1051,-359.697C1051,-351.983 1051,-342.712 1051,-334.112"/>
<polygon fill="grey" stroke="grey" points="1054.5,-334.104 1051,-324.104 1047.5,-334.104 1054.5,-334.104"/>
</g>
<!-- 20&#45;&gt;19 -->
<g id="edge51" class="edge"><title>20&#45;&gt;19</title>
<path fill="none" stroke="grey" stroke-width="2" d="M949.78,-431.876C967.625,-422.554 989.897,-410.919 1009,-400.939"/>
<polygon fill="grey" stroke="grey" points="1010.85,-403.922 1018.09,-396.19 1007.61,-397.718 1010.85,-403.922"/>
</g>
<!-- 20&#45;&gt;21 -->
<g id="edge54" class="edge"><title>20&#45;&gt;21</title>
<path fill="none" stroke="grey" stroke-width="2" d="M873.915,-441.866C817.144,-432.372 713.943,-414.789 615.255,-396.017"/>
<polygon fill="grey" stroke="grey" points="615.892,-392.576 605.413,-394.138 614.579,-399.451 615.892,-392.576"/>
</g>
<!-- 20&#45;&gt;22 -->
<g id="edge56" class="edge"><title>20&#45;&gt;22</title>
<path fill="none" stroke="grey" stroke-width="2" d="M960.041,-438.821C1004.97,-428.197 1076.47,-411.287 1132.01,-398.152"/>
<polygon fill="grey" stroke="grey" points="1132.91,-401.537 1141.84,-395.829 1131.3,-394.724 1132.91,-401.537"/>
</g>
<!-- 20&#45;&gt;23 -->
<g id="edge58" class="edge"><title>20&#45;&gt;23</title>
<path fill="none" stroke="grey" stroke-width="2" d="M873.933,-435.42C841.176,-425.092 795.595,-410.719 758.636,-399.065"/>
<polygon fill="grey" stroke="grey" points="759.539,-395.68 748.95,-396.011 757.434,-402.356 759.539,-395.68"/>
</g>
<!-- 20&#45;&gt;24 -->
<g id="edge60" class="edge"><title>20&#45;&gt;24</title>
<path fill="none" stroke="grey" stroke-width="2" d="M960.173,-446.033C1028.93,-440.634 1167.43,-427.003 1292.61,-395.754"/>
<polygon fill="grey" stroke="grey" points="1293.54,-399.13 1302.37,-393.275 1291.81,-392.345 1293.54,-399.13"/>
</g>
<!-- 20&#45;&gt;25 -->
<g id="edge62" class="edge"><title>20&#45;&gt;25</title>
<path fill="none" stroke="grey" stroke-width="2" d="M893.022,-431.697C880.689,-422.796 865.484,-411.823 852.147,-402.199"/>
<polygon fill="grey" stroke="grey" points="853.859,-399.118 843.702,-396.104 849.763,-404.794 853.859,-399.118"/>
</g>
<!-- 20&#45;&gt;28 -->
<g id="edge66" class="edge"><title>20&#45;&gt;28</title>
<path fill="none" stroke="grey" stroke-width="2" d="M960.091,-446.926C1041.04,-442.419 1221.3,-429.489 1381.48,-395.839"/>
<polygon fill="grey" stroke="grey" points="1382.46,-399.208 1391.51,-393.698 1381,-392.362 1382.46,-399.208"/>
</g>
<!-- 20&#45;&gt;29 -->
<g id="edge68" class="edge"><title>20&#45;&gt;29</title>
<path fill="none" stroke="grey" stroke-width="2" d="M917,-431.697C917,-423.983 917,-414.712 917,-406.112"/>
<polygon fill="grey" stroke="grey" points="920.5,-406.104 917,-396.104 913.5,-406.104 920.5,-406.104"/>
</g>
<!-- 20&#45;&gt;30 -->
<g id="edge70" class="edge"><title>20&#45;&gt;30</title>
<path fill="none" stroke="grey" stroke-width="2" d="M960.027,-448.265C1055.73,-445.922 1293.1,-436.184 1487,-396 1487.1,-395.979 1487.2,-395.958 1487.31,-395.936"/>
<polygon fill="grey" stroke="grey" points="1488.02,-399.364 1496.93,-393.625 1486.39,-392.557 1488.02,-399.364"/>
</g>
<!-- 20&#45;&gt;31 -->
<g id="edge72" class="edge"><title>20&#45;&gt;31</title>
<path fill="none" stroke="grey" stroke-width="2" d="M873.813,-443.633C846.146,-440.225 809.469,-435.764 777,-432 635.452,-415.591 595.184,-426.698 452.134,-395.984"/>
<polygon fill="grey" stroke="grey" points="452.624,-392.509 442.108,-393.8 451.134,-399.349 452.624,-392.509"/>
</g>
<!-- 21&#45;&gt;18 -->
<g id="edge35" class="edge"><title>21&#45;&gt;18</title>
<path fill="none" stroke="grey" stroke-width="2" d="M605.376,-361.654C608.624,-361.073 611.844,-360.518 615,-360 761.963,-335.877 938.465,-317.713 1013.89,-310.456"/>
<polygon fill="grey" stroke="grey" points="1014.22,-313.94 1023.85,-309.505 1013.56,-306.972 1014.22,-313.94"/>
</g>
<!-- 22&#45;&gt;18 -->
<g id="edge36" class="edge"><title>22&#45;&gt;18</title>
<path fill="none" stroke="grey" stroke-width="2" d="M1173.37,-359.876C1147.12,-348.535 1112.95,-333.77 1087.4,-322.726"/>
<polygon fill="grey" stroke="grey" points="1088.62,-319.444 1078.06,-318.691 1085.85,-325.87 1088.62,-319.444"/>
</g>
<!-- 23&#45;&gt;18 -->
<g id="edge37" class="edge"><title>23&#45;&gt;18</title>
<path fill="none" stroke="grey" stroke-width="2" d="M766.085,-361.819C769.096,-361.2 772.077,-360.591 775,-360 860.41,-342.726 960.977,-323.759 1013.98,-313.869"/>
<polygon fill="grey" stroke="grey" points="1014.74,-317.288 1023.93,-312.015 1013.46,-310.406 1014.74,-317.288"/>
</g>
<!-- 24&#45;&gt;18 -->
<g id="edge38" class="edge"><title>24&#45;&gt;18</title>
<path fill="none" stroke="grey" stroke-width="2" d="M1302.3,-362.976C1299.17,-361.912 1296.04,-360.903 1293,-360 1221.55,-338.802 1135.95,-322.018 1088.09,-313.385"/>
<polygon fill="grey" stroke="grey" points="1088.64,-309.928 1078.18,-311.617 1087.41,-316.82 1088.64,-309.928"/>
</g>
<!-- 25&#45;&gt;18 -->
<g id="edge39" class="edge"><title>25&#45;&gt;18</title>
<path fill="none" stroke="grey" stroke-width="2" d="M855.439,-362.984C858.324,-361.942 861.204,-360.934 864,-360 915.342,-342.847 975.768,-326.38 1013.73,-316.474"/>
<polygon fill="grey" stroke="grey" points="1015.02,-319.757 1023.82,-313.859 1013.26,-312.981 1015.02,-319.757"/>
</g>
<!-- 26&#45;&gt;18 -->
<g id="edge40" class="edge"><title>26&#45;&gt;18</title>
<path fill="none" stroke="grey" stroke-width="2" d="M1599.49,-362.727C1596.32,-361.689 1593.12,-360.755 1590,-360 1405.35,-315.351 1176.44,-308.165 1088.14,-307.12"/>
<polygon fill="grey" stroke="grey" points="1088.11,-303.62 1078.08,-307.021 1088.04,-310.62 1088.11,-303.62"/>
</g>
<!-- 27&#45;&gt;18 -->
<g id="edge41" class="edge"><title>27&#45;&gt;18</title>
<path fill="none" stroke="grey" stroke-width="2" d="M339.495,-362.652C342.669,-361.629 345.871,-360.719 349,-360 477.33,-330.504 886.948,-313.114 1013.43,-308.347"/>
<polygon fill="grey" stroke="grey" points="1013.9,-311.832 1023.76,-307.962 1013.63,-304.837 1013.9,-311.832"/>
</g>
<!-- 28&#45;&gt;18 -->
<g id="edge42" class="edge"><title>28&#45;&gt;18</title>
<path fill="none" stroke="grey" stroke-width="2" d="M1391.48,-362.462C1388.28,-361.574 1385.1,-360.741 1382,-360 1276.86,-334.873 1150.03,-318.306 1088.34,-311.106"/>
<polygon fill="grey" stroke="grey" points="1088.64,-307.617 1078.3,-309.951 1087.84,-314.572 1088.64,-307.617"/>
</g>
<!-- 29&#45;&gt;18 -->
<g id="edge43" class="edge"><title>29&#45;&gt;18</title>
<path fill="none" stroke="grey" stroke-width="2" d="M949.78,-359.876C969.534,-349.557 994.713,-336.403 1015.02,-325.797"/>
<polygon fill="grey" stroke="grey" points="1016.72,-328.855 1023.96,-321.123 1013.48,-322.651 1016.72,-328.855"/>
</g>
<!-- 30&#45;&gt;18 -->
<g id="edge44" class="edge"><title>30&#45;&gt;18</title>
<path fill="none" stroke="grey" stroke-width="2" d="M1496.91,-362.477C1493.58,-361.562 1490.25,-360.72 1487,-360 1341.43,-327.682 1163.85,-313.812 1088.1,-309.064"/>
<polygon fill="grey" stroke="grey" points="1088.3,-305.569 1078.1,-308.453 1087.87,-312.556 1088.3,-305.569"/>
</g>
<!-- 31&#45;&gt;18 -->
<g id="edge45" class="edge"><title>31&#45;&gt;18</title>
<path fill="none" stroke="grey" stroke-width="2" d="M442.092,-362.126C445.086,-361.329 448.076,-360.608 451,-360 660.493,-316.458 918.405,-308.661 1013.5,-307.286"/>
<polygon fill="grey" stroke="grey" points="1013.81,-310.782 1023.76,-307.154 1013.72,-303.783 1013.81,-310.782"/>
</g>
<!-- 32&#45;&gt;18 -->
<g id="edge46" class="edge"><title>32&#45;&gt;18</title>
<path fill="none" stroke="grey" stroke-width="2" d="M1684.7,-362.204C1681.44,-361.377 1678.18,-360.628 1675,-360 1455.5,-316.677 1185.68,-308.757 1088.27,-307.317"/>
<polygon fill="grey" stroke="grey" points="1088.1,-303.815 1078.05,-307.181 1088.01,-310.814 1088.1,-303.815"/>
</g>
<!-- 33&#45;&gt;18 -->
<g id="edge47" class="edge"><title>33&#45;&gt;18</title>
<path fill="none" stroke="grey" stroke-width="2" d="M116.032,-361.956C119.046,-361.212 122.055,-360.547 125,-360 299.897,-327.491 862.672,-311.618 1013.51,-307.88"/>
<polygon fill="grey" stroke="grey" points="1013.73,-311.376 1023.65,-307.632 1013.56,-304.378 1013.73,-311.376"/>
</g>
<!-- 34&#45;&gt;18 -->
<g id="edge48" class="edge"><title>34&#45;&gt;18</title>
<path fill="none" stroke="grey" stroke-width="2" d="M1791.58,-362.292C1788.36,-361.419 1785.14,-360.638 1782,-360 1647.06,-332.638 1217.85,-313.661 1088.35,-308.447"/>
<polygon fill="grey" stroke="grey" points="1088.28,-304.942 1078.15,-308.04 1088,-311.936 1088.28,-304.942"/>
</g>
<!-- 35&#45;&gt;18 -->
<g id="edge49" class="edge"><title>35&#45;&gt;18</title>
<path fill="none" stroke="grey" stroke-width="2" d="M215.279,-363.37C220.196,-362.057 225.184,-360.887 230,-360 383.673,-331.699 874.393,-313.059 1013.76,-308.239"/>
<polygon fill="grey" stroke="grey" points="1014.06,-311.732 1023.93,-307.891 1013.82,-304.736 1014.06,-311.732"/>
</g>
<!-- 36&#45;&gt;0 -->
<g id="edge5" class="edge"><title>36&#45;&gt;0</title>
<path fill="none" stroke="grey" stroke-width="2" d="M1596.4,-215.963C1585.94,-206.635 1574.6,-194.107 1569,-180 1550.27,-132.846 1565.74,-102.874 1606,-72 1638.3,-47.2355 1753.88,-30.4448 1814.42,-23.1386"/>
<polygon fill="grey" stroke="grey" points="1815.18,-26.5736 1824.7,-21.9255 1814.36,-19.6218 1815.18,-26.5736"/>
</g>
<!-- 37 -->
<g id="node38" class="node"><title>37</title>
<path fill="none" stroke="#d86656" stroke-width="2" d="M1648,-180C1648,-180 1590,-180 1590,-180 1584,-180 1578,-174 1578,-168 1578,-168 1578,-156 1578,-156 1578,-150 1584,-144 1590,-144 1590,-144 1648,-144 1648,-144 1654,-144 1660,-150 1660,-156 1660,-156 1660,-168 1660,-168 1660,-174 1654,-180 1648,-180"/>
<text text-anchor="middle" x="1619" y="-159.5" font-family="sans" font-size="10.00">rnanorm_plot</text>
</g>
<!-- 36&#45;&gt;37 -->
<g id="edge79" class="edge"><title>36&#45;&gt;37</title>
<path fill="none" stroke="grey" stroke-width="2" d="M1619,-215.697C1619,-207.983 1619,-198.712 1619,-190.112"/>
<polygon fill="grey" stroke="grey" points="1622.5,-190.104 1619,-180.104 1615.5,-190.104 1622.5,-190.104"/>
</g>
<!-- 39 -->
<g id="node40" class="node"><title>39</title>
<path fill="none" stroke="#56a2d8" stroke-width="2" d="M1784,-180C1784,-180 1690,-180 1690,-180 1684,-180 1678,-174 1678,-168 1678,-168 1678,-156 1678,-156 1678,-150 1684,-144 1690,-144 1690,-144 1784,-144 1784,-144 1790,-144 1796,-150 1796,-156 1796,-156 1796,-168 1796,-168 1796,-174 1790,-180 1784,-180"/>
<text text-anchor="middle" x="1737" y="-159.5" font-family="sans" font-size="10.00">tpm_gene_2_symbol</text>
</g>
<!-- 36&#45;&gt;39 -->
<g id="edge81" class="edge"><title>36&#45;&gt;39</title>
<path fill="none" stroke="grey" stroke-width="2" d="M1646.07,-216.941C1661.83,-207.591 1681.94,-195.662 1699.24,-185.4"/>
<polygon fill="grey" stroke="grey" points="1701.18,-188.32 1707.99,-180.208 1697.61,-182.3 1701.18,-188.32"/>
</g>
<!-- 37&#45;&gt;0 -->
<g id="edge6" class="edge"><title>37&#45;&gt;0</title>
<path fill="none" stroke="grey" stroke-width="2" d="M1613.73,-143.815C1608.86,-124.166 1604.6,-92.1263 1621,-72 1645.16,-42.3639 1755.98,-27.8254 1814.9,-22.0825"/>
<polygon fill="grey" stroke="grey" points="1815.3,-25.561 1824.93,-21.1418 1814.64,-18.5916 1815.3,-25.561"/>
</g>
<!-- 38 -->
<g id="node39" class="node"><title>38</title>
<path fill="none" stroke="#d88556" stroke-width="2" d="M1672,-108C1672,-108 1642,-108 1642,-108 1636,-108 1630,-102 1630,-96 1630,-96 1630,-84 1630,-84 1630,-78 1636,-72 1642,-72 1642,-72 1672,-72 1672,-72 1678,-72 1684,-78 1684,-84 1684,-84 1684,-96 1684,-96 1684,-102 1678,-108 1672,-108"/>
<text text-anchor="middle" x="1657" y="-87.5" font-family="sans" font-size="10.00">xCell</text>
</g>
<!-- 38&#45;&gt;0 -->
<g id="edge7" class="edge"><title>38&#45;&gt;0</title>
<path fill="none" stroke="grey" stroke-width="2" d="M1684.37,-75.6633C1687.26,-74.3774 1690.18,-73.1322 1693,-72 1734.06,-55.5299 1782.43,-39.9282 1814.95,-29.9732"/>
<polygon fill="grey" stroke="grey" points="1816.37,-33.2002 1824.92,-26.9455 1814.34,-26.5022 1816.37,-33.2002"/>
</g>
<!-- 39&#45;&gt;38 -->
<g id="edge80" class="edge"><title>39&#45;&gt;38</title>
<path fill="none" stroke="grey" stroke-width="2" d="M1717.22,-143.697C1707.25,-134.965 1694.99,-124.24 1684.14,-114.75"/>
<polygon fill="grey" stroke="grey" points="1686.38,-112.055 1676.55,-108.104 1681.77,-117.323 1686.38,-112.055"/>
</g>
<!-- 40&#45;&gt;0 -->
<g id="edge8" class="edge"><title>40&#45;&gt;0</title>
<path fill="none" stroke="grey" stroke-width="2" d="M1907.73,-215.844C1910.1,-185.624 1912.14,-121.423 1893,-72 1889.09,-61.9113 1882.61,-52.158 1875.95,-43.828"/>
<polygon fill="grey" stroke="grey" points="1878.45,-41.3666 1869.31,-36.0127 1873.11,-45.8994 1878.45,-41.3666"/>
</g>
<!-- 41&#45;&gt;0 -->
<g id="edge9" class="edge"><title>41&#45;&gt;0</title>
<path fill="none" stroke="grey" stroke-width="2" d="M2009.38,-71.9656C1972.22,-59.4594 1922.58,-42.7545 1889.07,-31.4754"/>
<polygon fill="grey" stroke="grey" points="1889.81,-28.0323 1879.22,-28.1598 1887.58,-34.6667 1889.81,-28.0323"/>
</g>
<!-- 42&#45;&gt;0 -->
<g id="edge10" class="edge"><title>42&#45;&gt;0</title>
<path fill="none" stroke="grey" stroke-width="2" d="M1928.88,-362.136C1787.23,-335.356 1512,-277.812 1512,-235 1512,-235 1512,-235 1512,-161 1512,-30.9904 1726.29,-17.9107 1814.63,-18.0417"/>
<polygon fill="grey" stroke="grey" points="1814.73,-21.5424 1824.75,-18.1162 1814.78,-14.5426 1814.73,-21.5424"/>
</g>
<!-- 43&#45;&gt;0 -->
<g id="edge11" class="edge"><title>43&#45;&gt;0</title>
<path fill="none" stroke="grey" stroke-width="2" d="M2318.63,-215.953C2318.83,-182.597 2314.09,-108.757 2271,-72 2213.99,-23.3637 1980.89,-18.6062 1889.25,-18.664"/>
<polygon fill="grey" stroke="grey" points="1889.04,-15.1645 1879.05,-18.6911 1889.06,-22.1644 1889.04,-15.1645"/>
</g>
<!-- 44&#45;&gt;0 -->
<g id="edge12" class="edge"><title>44&#45;&gt;0</title>
<path fill="none" stroke="grey" stroke-width="2" d="M2257.68,-287.981C2258.39,-243.947 2253.53,-125.95 2185,-72 2139.64,-36.2915 1966.53,-24.1463 1889.43,-20.4516"/>
<polygon fill="grey" stroke="grey" points="1889.36,-16.9449 1879.21,-19.9848 1889.04,-23.9376 1889.36,-16.9449"/>
</g>
</g>
</svg>
